<?xml version="1.0" encoding="utf-8"?>
<!-- Generator: Adobe Illustrator 26.1.0, SVG Export Plug-In . SVG Version: 6.00 Build 0)  -->
<svg version="1.1" id="Layer_1" xmlns="http://www.w3.org/2000/svg" xmlns:xlink="http://www.w3.org/1999/xlink" x="0px" y="0px"
	 viewBox="0 0 128 128" style="enable-background:new 0 0 128 128;" xml:space="preserve">
<style type="text/css">
	.st0{fill:#FFFFFF;}
</style>
<g>
	<path class="st0" d="M35.5,24.7c-1.5,0-2.2,0.6-2.2,2.1v57.2c0,2-1.1,3.1-3,3.1c-2.9,0-3.5-1.7-3.6-2.7l0,0v0V26.6
		c0-0.2-0.1-0.4-0.1-0.5c0-0.1,0-0.1-0.1-0.2l0,0l0,0c-0.1-0.4-0.4-0.6-0.7-0.8c-0.3-0.2-0.8-0.3-1.4-0.3c-1.3,0-1.9,0.6-1.9,1.9
		v57.4c0,2-1.1,3.1-3,3.1c-3.3,0-3.6-2.2-3.6-3.1V26.9c0-1.5-0.7-2.2-2.3-2.2c-1.2,0-1.9,0.4-1.9,2.2v68.8c0,2-1.1,3.1-3,3.1
		c-3.3,0-3.6-2.2-3.6-3.1V51.9c0-1.5-0.7-2.2-2.3-2.2c-1.2,0-1.9,0.4-1.9,2.2v43.8c0,5.2,2.5,7.6,7.9,7.6c4.9,0,7.2-2.4,7.2-7.6
		v-3.4v-1.1l1.1,0.2c0.8,0.2,1.6,0.2,2.6,0.2c2,0,3.5-0.4,4.7-1.2l0.5-0.4l0.5,0.3c1.2,0.8,2.9,1.2,5.1,1.2c4.9,0,7.2-2.4,7.2-7.6
		V26.9C37.5,25.3,36.9,24.7,35.5,24.7z"/>
	<path class="st0" d="M88.4,24.7c-1.5,0-2.2,0.6-2.2,2.1v57.2c0,2-1.1,3.1-3,3.1c-2.9,0-3.5-1.7-3.6-2.7l0,0v0v-0.3V26.9
		c0-0.3,0-0.6-0.1-0.8c0-0.1-0.1-0.1-0.1-0.2l0,0l0,0c-0.1-0.4-0.4-0.6-0.7-0.8c-0.3-0.2-0.8-0.3-1.4-0.3c-1.3,0-1.7,0.6-1.8,1.3
		l0,0l0,0l-0.1,0.3c0,0.1,0,0.2,0,0.3v0.3v57.2c0,2-1.1,3.1-3,3.1c-3.3,0-3.6-2.2-3.6-3.1V26.9c0-1.5-0.7-2.2-2.3-2.2
		c-1.2,0-1.9,0.4-1.9,2.2v55.4c0,4-1.6,4.8-3,4.8c-2.1,0-3.1-1.8-3.1-5.5V31.9c0-4.9-2.2-7.2-6.9-7.2l-0.1,0l-0.1,0
		c-2.6,0-4.5,0.6-5.8,1.8c-1.2,1.2-1.9,3-1.9,5.5v52.6c0,4.9,2.4,7.2,7.4,7.2c0.8,0,1.6-0.1,2.2-0.2l1-0.2v1.1v9.1c0,1,0.3,2,2.3,2
		c0.6,0,1.1-0.1,1.4-0.4c0.3-0.3,0.4-0.8,0.4-1.5l0-9.2v-1.1l1.1,0.3c0.6,0.1,1.3,0.2,2,0.2c1.8,0,3.3-0.4,4.5-1.3l0.5-0.4l0.5,0.4
		c1.3,0.9,3,1.3,5.3,1.3c2,0,3.5-0.4,4.7-1.2l0.5-0.4l0.5,0.3c1.2,0.8,2.9,1.2,5.1,1.2c4.9,0,7.2-2.4,7.2-7.6V26.9
		C90.4,25.3,89.9,24.7,88.4,24.7z M54.3,84.2c0,2.1-1.1,3.3-3,3.3s-3-1.2-3-3.3V31.9c0-0.9,0.2-1.6,0.7-2.1c0.5-0.5,1.3-0.8,2.3-0.8
		c2,0,3.1,1.1,3.1,2.9V84.2z"/>
	<path class="st0" d="M120,24.5c-5.4,0-7.9,2.4-7.9,7.6v25.6c0,1.5,0.6,2.1,2.2,2.1c1.5,0,2-0.6,2-2.1V32.1c0-0.9,0.4-3.1,3.6-3.1
		c1.9,0,3,1.1,3,3.1v52.1c0,2.7-1.9,3-2.7,3c0,0-0.1,0-0.1,0H104h-0.9v-0.1c-1.4-0.3-2.2-1.3-2.2-2.8V27.2c0-2.2-1.1-2.5-2.2-2.5
		c-1.1,0-2,0.3-2,2.5v57.5c0,2,0.7,3.7,2.3,5.3c0.5,0.4,1,0.8,1.6,1.1c0.8,0.4,1.6,0.6,2.5,0.6H120c4.9,0,7.2-2.4,7.2-7.5V32.1
		C127.2,26.9,124.9,24.5,120,24.5z"/>
	<path class="st0" d="M123.7,100.2c0-0.9-0.3-1.5-0.8-2.1c-0.5-0.5-1.1-0.8-1.8-0.8c-0.8,0-1.4,0.3-2,0.9c-0.6,0.6-0.9,1.3-0.9,2.1
		c0,0.8,0.3,1.5,0.9,2.1c0.6,0.6,1.2,0.9,1.9,0.9c0.8,0,1.4-0.3,2-0.8C123.5,101.8,123.7,101.1,123.7,100.2z"/>
</g>
</svg>
